<svg id="visual" viewBox="0 0 900 600" width="900" height="600" xmlns="http://www.w3.org/2000/svg" xmlns:xlink="http://www.w3.org/1999/xlink" version="1.1"><g stroke-width="1" stroke-linejoin="bevel"><path d="M484 335L538 394L594 302Z" fill="#0c4132" stroke="#0c4132"></path><path d="M538 394L594 421L594 302Z" fill="#145c48" stroke="#145c48"></path><path d="M594 302L490 202L484 335Z" fill="#29a684" stroke="#29a684"></path><path d="M594 302L566 187L490 202Z" fill="#06271e" stroke="#06271e"></path><path d="M390 262L409 400L484 335Z" fill="#06271e" stroke="#06271e"></path><path d="M484 335L409 400L538 394Z" fill="#06271e" stroke="#06271e"></path><path d="M538 394L509 484L594 421Z" fill="#29a684" stroke="#29a684"></path><path d="M409 400L509 484L538 394Z" fill="#093428" stroke="#093428"></path><path d="M490 202L421 232L484 335Z" fill="#093428" stroke="#093428"></path><path d="M421 232L390 262L484 335Z" fill="#145c48" stroke="#145c48"></path><path d="M607 521L676 465L594 421Z" fill="#145c48" stroke="#145c48"></path><path d="M594 421L705 439L594 302Z" fill="#001c14" stroke="#001c14"></path><path d="M594 302L700 164L566 187Z" fill="#104e3d" stroke="#104e3d"></path><path d="M676 465L705 439L594 421Z" fill="#1c795f" stroke="#1c795f"></path><path d="M509 484L607 521L594 421Z" fill="#0c4132" stroke="#0c4132"></path><path d="M409 400L393 471L509 484Z" fill="#001c14" stroke="#001c14"></path><path d="M509 484L522 600L607 521Z" fill="#001c14" stroke="#001c14"></path><path d="M310 479L393 471L409 400Z" fill="#259777" stroke="#259777"></path><path d="M764 311L736 262L594 302Z" fill="#104e3d" stroke="#104e3d"></path><path d="M288 211L337 304L390 262Z" fill="#093428" stroke="#093428"></path><path d="M390 262L337 304L409 400Z" fill="#093428" stroke="#093428"></path><path d="M490 202L474 136L421 232Z" fill="#259777" stroke="#259777"></path><path d="M421 232L288 211L390 262Z" fill="#001c14" stroke="#001c14"></path><path d="M566 187L474 136L490 202Z" fill="#104e3d" stroke="#104e3d"></path><path d="M572 67L474 136L566 187Z" fill="#104e3d" stroke="#104e3d"></path><path d="M705 439L764 311L594 302Z" fill="#0c4132" stroke="#0c4132"></path><path d="M772 205L700 164L736 262Z" fill="#259777" stroke="#259777"></path><path d="M736 262L700 164L594 302Z" fill="#186a53" stroke="#186a53"></path><path d="M700 164L661 112L566 187Z" fill="#145c48" stroke="#145c48"></path><path d="M764 311L772 205L736 262Z" fill="#001c14" stroke="#001c14"></path><path d="M788 0L664 0L661 112Z" fill="#29a684" stroke="#29a684"></path><path d="M419 600L522 600L509 484Z" fill="#29a684" stroke="#29a684"></path><path d="M668 600L766 517L676 465Z" fill="#06271e" stroke="#06271e"></path><path d="M522 600L577 600L607 521Z" fill="#29a684" stroke="#29a684"></path><path d="M766 517L804 429L705 439Z" fill="#1c795f" stroke="#1c795f"></path><path d="M661 112L572 67L566 187Z" fill="#104e3d" stroke="#104e3d"></path><path d="M337 304L278 387L409 400Z" fill="#06271e" stroke="#06271e"></path><path d="M393 471L419 600L509 484Z" fill="#29a684" stroke="#29a684"></path><path d="M278 387L310 479L409 400Z" fill="#0c4132" stroke="#0c4132"></path><path d="M572 67L439 80L474 136Z" fill="#1c795f" stroke="#1c795f"></path><path d="M474 136L439 80L421 232Z" fill="#259777" stroke="#259777"></path><path d="M337 304L171 272L278 387Z" fill="#093428" stroke="#093428"></path><path d="M766 517L705 439L676 465Z" fill="#001c14" stroke="#001c14"></path><path d="M705 439L804 429L764 311Z" fill="#259777" stroke="#259777"></path><path d="M900 227L829 122L772 205Z" fill="#093428" stroke="#093428"></path><path d="M312 90L288 211L421 232Z" fill="#259777" stroke="#259777"></path><path d="M668 600L676 465L607 521Z" fill="#259777" stroke="#259777"></path><path d="M577 600L668 600L607 521Z" fill="#259777" stroke="#259777"></path><path d="M323 600L419 600L393 471Z" fill="#001c14" stroke="#001c14"></path><path d="M278 387L224 421L310 479Z" fill="#145c48" stroke="#145c48"></path><path d="M310 479L323 600L393 471Z" fill="#06271e" stroke="#06271e"></path><path d="M171 272L224 421L278 387Z" fill="#186a53" stroke="#186a53"></path><path d="M574 0L524 0L572 67Z" fill="#093428" stroke="#093428"></path><path d="M572 67L524 0L439 80Z" fill="#104e3d" stroke="#104e3d"></path><path d="M439 80L312 90L421 232Z" fill="#1c795f" stroke="#1c795f"></path><path d="M664 0L574 0L572 67Z" fill="#104e3d" stroke="#104e3d"></path><path d="M664 0L572 67L661 112Z" fill="#0c4132" stroke="#0c4132"></path><path d="M375 0L312 90L439 80Z" fill="#093428" stroke="#093428"></path><path d="M288 211L171 272L337 304Z" fill="#06271e" stroke="#06271e"></path><path d="M231 489L323 600L310 479Z" fill="#186a53" stroke="#186a53"></path><path d="M224 421L231 489L310 479Z" fill="#0c4132" stroke="#0c4132"></path><path d="M829 122L661 112L700 164Z" fill="#093428" stroke="#093428"></path><path d="M900 227L772 205L764 311Z" fill="#104e3d" stroke="#104e3d"></path><path d="M772 205L829 122L700 164Z" fill="#20876b" stroke="#20876b"></path><path d="M900 368L764 311L804 429Z" fill="#29a684" stroke="#29a684"></path><path d="M900 368L900 323L764 311Z" fill="#186a53" stroke="#186a53"></path><path d="M900 517L900 368L804 429Z" fill="#145c48" stroke="#145c48"></path><path d="M900 323L900 227L764 311Z" fill="#093428" stroke="#093428"></path><path d="M524 0L375 0L439 80Z" fill="#001c14" stroke="#001c14"></path><path d="M189 186L288 211L312 90Z" fill="#29a684" stroke="#29a684"></path><path d="M189 186L171 272L288 211Z" fill="#001c14" stroke="#001c14"></path><path d="M104 474L188 600L231 489Z" fill="#06271e" stroke="#06271e"></path><path d="M196 72L189 186L312 90Z" fill="#259777" stroke="#259777"></path><path d="M668 600L823 600L766 517Z" fill="#145c48" stroke="#145c48"></path><path d="M766 517L900 517L804 429Z" fill="#145c48" stroke="#145c48"></path><path d="M823 600L900 517L766 517Z" fill="#29a684" stroke="#29a684"></path><path d="M375 0L323 0L312 90Z" fill="#186a53" stroke="#186a53"></path><path d="M900 76L788 0L829 122Z" fill="#104e3d" stroke="#104e3d"></path><path d="M829 122L788 0L661 112Z" fill="#1c795f" stroke="#1c795f"></path><path d="M323 0L196 72L312 90Z" fill="#001c14" stroke="#001c14"></path><path d="M189 186L95 228L171 272Z" fill="#1c795f" stroke="#1c795f"></path><path d="M900 227L900 76L829 122Z" fill="#0c4132" stroke="#0c4132"></path><path d="M104 474L231 489L224 421Z" fill="#0c4132" stroke="#0c4132"></path><path d="M231 489L188 600L323 600Z" fill="#20876b" stroke="#20876b"></path><path d="M823 600L900 600L900 517Z" fill="#06271e" stroke="#06271e"></path><path d="M76 139L95 228L189 186Z" fill="#259777" stroke="#259777"></path><path d="M83 399L104 474L224 421Z" fill="#20876b" stroke="#20876b"></path><path d="M83 399L224 421L171 272Z" fill="#259777" stroke="#259777"></path><path d="M77 334L83 399L171 272Z" fill="#001c14" stroke="#001c14"></path><path d="M95 228L77 334L171 272Z" fill="#06271e" stroke="#06271e"></path><path d="M323 0L197 0L196 72Z" fill="#1c795f" stroke="#1c795f"></path><path d="M196 72L76 139L189 186Z" fill="#093428" stroke="#093428"></path><path d="M900 76L900 0L788 0Z" fill="#0c4132" stroke="#0c4132"></path><path d="M0 519L118 600L104 474Z" fill="#093428" stroke="#093428"></path><path d="M104 474L118 600L188 600Z" fill="#0c4132" stroke="#0c4132"></path><path d="M110 0L76 139L196 72Z" fill="#001c14" stroke="#001c14"></path><path d="M95 228L0 338L77 334Z" fill="#20876b" stroke="#20876b"></path><path d="M77 334L0 371L83 399Z" fill="#001c14" stroke="#001c14"></path><path d="M83 399L0 519L104 474Z" fill="#104e3d" stroke="#104e3d"></path><path d="M0 168L0 338L95 228Z" fill="#001c14" stroke="#001c14"></path><path d="M0 338L0 371L77 334Z" fill="#20876b" stroke="#20876b"></path><path d="M197 0L110 0L196 72Z" fill="#259777" stroke="#259777"></path><path d="M76 139L0 168L95 228Z" fill="#0c4132" stroke="#0c4132"></path><path d="M0 127L0 168L76 139Z" fill="#186a53" stroke="#186a53"></path><path d="M0 371L0 519L83 399Z" fill="#29a684" stroke="#29a684"></path><path d="M0 0L0 127L76 139Z" fill="#20876b" stroke="#20876b"></path><path d="M0 519L0 600L118 600Z" fill="#1c795f" stroke="#1c795f"></path><path d="M110 0L0 0L76 139Z" fill="#06271e" stroke="#06271e"></path></g></svg>